<?xml version="1.0" encoding="UTF-8" standalone="no"?>
<!-- Created with Inkscape (http://www.inkscape.org/) -->

<svg
   width="53.415928mm"
   height="31.505247mm"
   viewBox="0 0 53.415928 31.505247"
   version="1.1"
   id="svg1"
   xml:space="preserve"
   xmlns="http://www.w3.org/2000/svg"
   xmlns:svg="http://www.w3.org/2000/svg"><defs
     id="defs1" /><g
     id="layer1"
     transform="translate(-730.51461,-197.90833)"><g
       id="g909-7-9-3"
       transform="matrix(0.3699375,0,0,0.36993699,577.27156,120.79612)"
       style="fill:#ffffff;stroke-width:0.715211">
			<g
   id="g900-9-6-5"
   style="fill:#ffffff;stroke-width:0.715211">
				<g
   id="g899-3-4-6"
   style="fill:#ffffff;stroke-width:0.715211">
					<path
   d="m 531.598,263.789 c 11.888,-13.117 21.515,-36.931 4.452,-49.874 -16.448,-12.477 -36.08,-1.397 -46.412,13.205 0.581,0 1.161,0 1.742,0 -9.881,-14.029 -28.07,-25.072 -44.524,-14.413 -5.9,3.822 -10.573,9.966 -11.046,17.128 -0.674,10.208 3.659,21.107 9.7,29.142 0.729,0.969 2.369,0.09 1.672,-0.977 -8.577,-13.127 -15.008,-33.086 0.746,-43.457 15.381,-10.126 32.457,0.521 41.71,13.596 0.456,0.644 1.286,0.647 1.742,0 9.766,-13.868 28.652,-24.564 44.062,-12.22 15.316,12.27 5.636,34.635 -4.887,46.828 -0.615,0.712 0.401,1.751 1.043,1.042 z"
   id="path898-9-8-2"
   style="fill:#ffffff;stroke-width:0.715211" />
				</g>
			</g>
			<g
   id="g902-2-0-9"
   style="fill:#ffffff;stroke-width:0.715211">
				<g
   id="g901-8-8-1"
   style="fill:#ffffff;stroke-width:0.715211">
					<path
   d="m 454.331,268.547 c 4.604,4.781 9.618,9.079 14.99,12.976 3.125,2.267 6.359,4.391 9.687,6.349 2.009,1.182 4.053,2.302 6.13,3.358 1.243,0.631 3.594,2.296 4.98,2.374 1.692,0.095 3.036,-0.836 4.593,-1.591 3.723,-1.804 7.322,-3.841 10.836,-6.023 6.173,-3.833 12.453,-8.069 17.485,-13.353 0.723,-0.759 -0.261,-2.207 -1.173,-1.52 -5.118,3.856 -9.918,8.071 -15.237,11.668 -3.13,2.116 -6.38,4.048 -9.718,5.816 -1.487,0.788 -3.258,2.089 -4.877,2.435 -1.957,0.418 -2.185,0.276 -4.282,-0.742 -11.968,-5.808 -22.6,-13.826 -32.372,-22.79 -0.697,-0.641 -1.704,0.355 -1.042,1.043 z"
   id="path900-3-1-2"
   style="fill:#ffffff;stroke-width:0.715211" />
				</g>
			</g>
			<g
   id="g904-0-0-7"
   style="fill:#ffffff;stroke-width:0.715211">
				<g
   id="g903-1-2-0"
   style="fill:#ffffff;stroke-width:0.715211">
					<path
   d="m 415.313,268.846 c 10.148,-9.193 24.538,4.07 34.585,-3.876 3.49,-2.76 5.914,-7.311 8.054,-11.1 2.477,-4.385 4.759,-8.943 6.537,-13.66 1.304,-3.463 4.699,-16.78 -2.814,-15.978 -8.005,0.854 -9.711,17.437 -9.896,23.231 -0.223,7.002 1.165,14.702 6.448,19.728 5.86,5.575 13.688,4.503 20.7,1.987 1.174,-0.421 0.672,-2.305 -0.52,-1.885 -4.506,1.59 -9.602,3.078 -14.314,1.356 -4.421,-1.616 -7.483,-5.674 -8.983,-9.999 -2.139,-6.17 -1.748,-13.245 -0.407,-19.551 0.588,-2.767 3.558,-15.24 8.38,-12.878 4.454,2.182 0.427,12.286 -0.984,15.533 -1.984,4.566 -4.231,9.042 -6.793,13.312 -2.303,3.839 -4.959,8.823 -9.587,10.03 -10.631,2.77 -22.104,-5.982 -31.288,2.871 -0.579,0.558 0.29,1.415 0.882,0.879 z"
   id="path902-7-2-9"
   style="fill:#ffffff;stroke-width:0.715211" />
				</g>
			</g>
			<g
   id="g906-8-9-3"
   style="fill:#ffffff;stroke-width:0.715211">
				<g
   id="g905-9-7-6"
   style="fill:#ffffff;stroke-width:0.715211">
					<path
   d="m 480.097,250.98 c -3.488,3.118 -4.911,10.666 -2.896,14.9 2.206,4.635 8.401,4.752 10.421,-0.105 1.482,-3.561 2.581,-11.571 -0.287,-14.921 -2.947,-3.441 -7.488,-0.43 -5.864,3.64 0.377,0.945 2.096,0.958 1.965,-0.266 -0.23,-2.15 1.404,-3.303 2.534,-0.898 0.249,0.531 0.309,1.246 0.403,1.827 0.475,2.914 0.495,6.832 -0.831,9.509 -1.776,3.584 -5.542,3.056 -6.696,-0.673 -0.43,-1.389 -0.322,-2.963 -0.208,-4.391 0.214,-2.681 0.787,-5.411 2.534,-7.547 0.614,-0.749 -0.333,-1.738 -1.075,-1.075 z"
   id="path904-1-5-0"
   style="fill:#ffffff;stroke-width:0.715211" />
				</g>
			</g>
			<g
   id="g908-5-6-6"
   style="fill:#ffffff;stroke-width:0.715211">
				<g
   id="g907-4-4-2"
   style="fill:#ffffff;stroke-width:0.715211">
					<path
   d="m 481.815,254.593 c 1.077,2.271 3.352,3.381 5.864,2.753 1.472,-0.368 2.854,-1.579 3.942,-2.616 0.326,-0.311 3.54,-4.904 4.445,-4.63 1.25,0.379 -3.188,15.99 -1.979,18.622 2.56,5.575 8.005,0.829 10.109,-2.325 2.149,-3.222 3.682,-6.986 4.555,-10.752 0.666,-2.876 1.905,-7.907 0.251,-10.724 -2.624,-4.467 -5.653,1.29 -6.072,3.876 -1.029,6.349 2.629,11.54 9.606,10.685 4.938,-0.606 11.986,-6.772 10.992,-12.345 -1.14,-6.391 -8.26,-0.273 -9.883,2.439 -4.431,7.402 -4.378,18.492 5.889,20.282 5.863,1.022 10.795,-2.223 16.265,-3.565 7.049,-1.73 14.977,-0.089 21.468,2.89 1.033,0.474 1.945,-0.998 0.908,-1.552 -6.087,-3.253 -12.796,-4.971 -19.734,-4.167 -7.04,0.816 -21.187,9.9 -25.009,-0.988 -1.541,-4.388 0.728,-10.671 3.802,-13.952 1.101,-1.774 2.494,-2 4.179,-0.676 -0.035,1.046 -0.293,2.037 -0.775,2.972 -0.833,1.859 -2.436,3.622 -4.096,4.784 -4.096,2.868 -11.304,2.258 -11.625,-3.713 -0.107,-1.99 1.042,-8.776 2.612,-3.93 0.933,2.881 -0.667,7.467 -1.636,10.137 -1.045,2.878 -2.456,5.893 -4.436,8.288 -1.073,1.298 -3.466,4.321 -5.352,1.462 -0.613,-0.929 -0.149,-2.815 -0.028,-3.827 0.35,-2.931 1.13,-5.798 1.604,-8.709 0.307,-1.882 1.507,-6.763 -1.322,-7.467 -1.288,-0.32 -2.001,0.622 -2.758,1.428 -2.34,2.489 -6.579,10.152 -10.542,4.593 -0.539,-0.753 -1.643,-0.115 -1.244,0.727 z"
   id="path906-9-6-6"
   style="fill:#ffffff;stroke-width:0.715211" />
				</g>
			</g>
		</g></g></svg>
